<svg width="204" height="76" viewBox="0 0 204 76" fill="none" xmlns="http://www.w3.org/2000/svg">
<g id="rs_school_js 1" clip-path="url(#clip0_17_632)">
<path id="Vector" d="M105.321 25.173L115.027 24.5437C115.248 26.1355 115.654 27.3201 116.318 28.1716C117.389 29.5042 118.865 30.1706 120.821 30.1706C122.26 30.1706 123.404 29.8374 124.179 29.1341C124.917 28.5788 125.36 27.6903 125.36 26.7648C125.36 25.8764 124.954 25.0249 124.253 24.4697C123.514 23.8033 121.78 23.137 119.049 22.5447C114.584 21.5452 111.373 20.2125 109.491 18.5096C107.609 16.9178 106.539 14.5856 106.613 12.1053C106.613 10.4024 107.13 8.69957 108.089 7.29285C109.196 5.70103 110.709 4.44239 112.517 3.73902C114.473 2.88759 117.204 2.44336 120.636 2.44336C124.843 2.44336 128.054 3.22076 130.268 4.81258C132.482 6.36737 133.81 8.88466 134.216 12.3274L124.622 12.8827C124.363 11.402 123.847 10.3284 122.998 9.62504C122.149 8.92168 121.042 8.58851 119.603 8.58851C118.422 8.58851 117.536 8.84765 116.946 9.32889C116.392 9.77312 116.023 10.4395 116.06 11.1798C116.06 11.7351 116.355 12.2534 116.798 12.5866C117.278 13.0308 118.422 13.438 120.23 13.8082C124.695 14.7707 127.869 15.7332 129.825 16.7327C131.781 17.7322 133.183 18.9538 134.032 20.3976C134.918 21.8783 135.36 23.5812 135.323 25.3211C135.323 27.3942 134.733 29.4672 133.552 31.2071C132.334 33.0211 130.637 34.4278 128.644 35.2792C126.541 36.2047 123.884 36.6859 120.71 36.6859C115.101 36.6859 111.226 35.6124 109.048 33.4283C106.871 31.2441 105.58 28.5047 105.321 25.173ZM2.32489 36.1306V3.03566H19.3372C22.474 3.03566 24.9096 3.2948 26.5702 3.85008C28.1939 4.36835 29.6331 5.4419 30.5926 6.88564C31.6628 8.47746 32.1794 10.3284 32.1425 12.2534C32.2533 15.5111 30.5926 18.6207 27.7511 20.2495C26.644 20.8788 25.4262 21.323 24.1715 21.5452C25.0941 21.8043 26.0166 22.2485 26.8285 22.7668C27.4559 23.2851 27.9725 23.8774 28.4522 24.5067C29.0058 25.136 29.4855 25.8394 29.8915 26.5797L34.8365 36.1677H23.2489L17.7873 25.9874C17.0861 24.6918 16.4957 23.8403 15.9421 23.4331C15.2041 22.9149 14.3184 22.6557 13.4327 22.6557H12.547V36.0936H2.32489V36.1306ZM12.547 16.4365H16.8647C17.7873 16.3625 18.6729 16.2144 19.5586 15.9923C20.2229 15.8813 20.8133 15.5111 21.2192 14.9558C22.2156 13.6231 22.068 11.7351 20.8502 10.5875C20.186 10.0323 18.8944 9.7361 17.0492 9.7361H12.547V16.4365ZM0 64.4872L9.7055 63.8579C9.92692 65.4497 10.3329 66.6343 10.9971 67.4857C12.0304 68.8184 13.5434 69.5218 15.4993 69.5218C16.9385 69.5218 18.0825 69.1886 18.8575 68.4852C19.5955 67.8929 20.0383 67.0415 20.0383 66.116C20.0383 65.2276 19.6324 64.3761 18.9313 63.8209C18.1932 63.1545 16.4588 62.4882 13.691 61.8959C9.22576 60.8964 6.0152 59.5637 4.13314 57.8608C2.25109 56.269 1.1809 53.9368 1.2547 51.4565C1.2547 49.7536 1.77135 48.0508 2.73082 46.644C3.83792 45.0522 5.35094 43.7936 7.15919 43.0902C9.11505 42.2388 11.8459 41.7946 15.2779 41.7946C19.4848 41.7946 22.6954 42.572 24.9096 44.1638C27.1237 45.7556 28.4153 48.2359 28.8213 51.6786L19.2265 52.2339C18.9682 50.7531 18.4515 49.6796 17.6027 48.9762C16.7909 48.2729 15.6469 47.9397 14.2077 47.9767C13.0268 47.9767 12.1411 48.2359 11.5507 48.7541C10.9602 49.1984 10.6281 49.8647 10.665 50.6051C10.665 51.1604 10.9602 51.6786 11.403 52.0118C11.8828 52.456 13.0268 52.8632 14.835 53.2334C19.3003 54.1959 22.4739 55.1584 24.4298 56.1579C26.3857 57.1574 27.788 58.3791 28.6368 59.8228C29.5224 61.3036 29.9653 63.0064 29.9653 64.7093C29.9653 66.7824 29.3379 68.8184 28.1939 70.5583C26.9761 72.3722 25.2786 73.779 23.2858 74.6304C21.1823 75.5559 18.5253 76.0371 15.3517 76.0371C9.7424 76.0371 5.86758 74.9636 3.6903 72.7795C1.51302 70.5583 0.295224 67.8189 0 64.4872Z" fill="white"/>
<path id="Vector_2" d="M49.0814 61.8957L58.0119 64.5981C57.5322 66.8563 56.5358 69.0034 55.1704 70.8914C53.9157 72.5572 52.255 73.8529 50.373 74.7043C48.454 75.5558 46.0184 76 43.0662 76C39.4866 76 36.5343 75.4817 34.2832 74.4452C31.9953 73.4087 30.0394 71.5577 28.3788 68.9294C26.7181 66.301 25.9062 62.9323 25.9062 58.8232C25.9062 53.3444 27.3455 49.1242 30.2608 46.1997C33.1762 43.2752 37.2724 41.7944 42.5864 41.7944C46.7565 41.7944 50.0039 42.6459 52.4026 44.3117C54.7644 46.0146 56.5358 48.6059 57.7167 52.0857L48.7123 54.0847C48.4909 53.3073 48.1588 52.5299 47.7159 51.8636C47.1624 51.0862 46.4612 50.4939 45.6125 50.0497C44.7637 49.6054 43.8042 49.4203 42.8447 49.4203C40.5199 49.4203 38.7485 50.3458 37.5307 52.2338C36.6081 53.6035 36.1284 55.7876 36.1284 58.7491C36.1284 62.414 36.6819 64.9313 37.789 66.301C38.8961 67.6707 40.446 68.3371 42.4757 68.3371C44.4316 68.3371 45.9077 67.7818 46.9041 66.7082C47.9005 65.5606 48.6385 63.9688 49.0814 61.8957ZM69.9316 42.3497H80.1168V53.9367H91.2615V42.3497H101.521V75.4447H91.2615V62.0438H80.1168V75.4447H69.9316V42.3497Z" fill="white"/>
<path id="Vector_3" d="M100.118 58.8971C100.118 53.4923 101.631 49.2722 104.62 46.2736C107.609 43.2751 111.816 41.7573 117.167 41.7573C122.666 41.7573 126.873 43.2381 129.862 46.1996C132.851 49.1611 134.327 53.3072 134.327 58.638C134.327 62.525 133.663 65.6716 132.371 68.1519C131.117 70.5951 129.161 72.5941 126.762 73.9268C124.29 75.2965 121.227 75.9999 117.573 75.9999C113.846 75.9999 110.783 75.4076 108.348 74.223C105.838 72.9643 103.772 71.0023 102.406 68.5961C100.893 66.0048 100.118 62.7841 100.118 58.8971ZM110.303 58.9341C110.303 62.2658 110.931 64.6721 112.149 66.1528C113.366 67.5966 115.064 68.337 117.204 68.337C119.382 68.337 121.079 67.6336 122.297 66.1899C123.515 64.7461 124.105 62.1918 124.105 58.4899C124.105 55.3803 123.478 53.0851 122.223 51.6784C120.968 50.2347 119.271 49.5313 117.13 49.5313C115.248 49.4573 113.44 50.2717 112.185 51.7154C110.931 53.1592 110.303 55.5654 110.303 58.9341ZM144.771 58.8971C144.771 53.4923 146.284 49.2722 149.273 46.2736C152.262 43.2751 156.469 41.7573 161.82 41.7573C167.319 41.7573 171.562 43.2381 174.515 46.1996C177.467 49.1611 178.98 53.3072 178.98 58.638C178.98 62.525 178.316 65.6716 177.024 68.1519C175.769 70.5951 173.814 72.5941 171.415 73.9268C168.942 75.2965 165.879 75.9999 162.226 75.9999C158.499 75.9999 155.436 75.4076 153 74.223C150.491 72.9643 148.424 71.0023 147.059 68.5961C145.546 66.0048 144.771 62.7841 144.771 58.8971ZM154.956 58.9341C154.956 62.2658 155.583 64.6721 156.801 66.1528C158.019 67.5966 159.717 68.337 161.857 68.337C164.034 68.337 165.732 67.6336 166.95 66.1899C168.167 64.7461 168.758 62.1918 168.758 58.4899C168.758 55.3803 168.13 53.0851 166.876 51.6784C165.621 50.2347 163.924 49.5313 161.783 49.5313C159.901 49.4573 158.056 50.2717 156.838 51.7154C155.583 53.1592 154.956 55.5654 154.956 58.9341Z" fill="white"/>
<path id="Vector_4" d="M177.91 42.3496H188.095V67.3004H204V75.4446H177.873V42.3496H177.91Z" fill="white"/>
<path id="Vector_5" d="M166.683 40.4399C176.938 32.6882 180.1 19.5477 173.746 11.0898C167.392 2.63195 153.929 2.05955 143.675 9.81133C133.42 17.5631 130.258 30.7036 136.612 39.1615C142.966 47.6193 156.429 48.1917 166.683 40.4399Z" fill="white"/>
<g id="Clip path group">
<mask id="mask0_17_632" style="mask-type:luminance" maskUnits="userSpaceOnUse" x="133" y="4" width="45" height="42">
<g id="SVGID_2_">
<path id="Vector_6" d="M166.683 40.4399C176.938 32.6882 180.1 19.5477 173.746 11.0898C167.392 2.63195 153.929 2.05955 143.675 9.81133C133.42 17.5631 130.258 30.7036 136.612 39.1615C142.966 47.6193 156.429 48.1917 166.683 40.4399Z" fill="white"/>
</g>
</mask>
<g mask="url(#mask0_17_632)">
<g id="Group">
<path id="Vector_7" d="M110.46 20.9307L163.45 -19.1272L200.118 29.6835L147.128 69.7413L110.46 20.9307Z" fill="white"/>
<g id="Layer_2_1_">
<g id="Clip path group_2">
<mask id="mask1_17_632" style="mask-type:luminance" maskUnits="userSpaceOnUse" x="110" y="-20" width="91" height="90">
<g id="SVGID_4_">
<path id="Vector_8" d="M110.46 20.9307L163.45 -19.1272L200.118 29.6835L147.128 69.7413L110.46 20.9307Z" fill="white"/>
</g>
</mask>
<g mask="url(#mask1_17_632)">
<g id="Layer_1-2">
<path id="Vector_9" d="M166.683 40.4399C176.938 32.6882 180.1 19.5477 173.746 11.0898C167.392 2.63195 153.929 2.05955 143.675 9.81133C133.42 17.5631 130.258 30.7036 136.612 39.1615C142.966 47.6193 156.429 48.1917 166.683 40.4399Z" fill="white"/>
<g id="Clip path group_3">
<mask id="mask2_17_632" style="mask-type:luminance" maskUnits="userSpaceOnUse" x="133" y="4" width="45" height="42">
<g id="SVGID_6_">
<path id="Vector_10" d="M166.683 40.4399C176.938 32.6882 180.1 19.5477 173.746 11.0898C167.392 2.63195 153.929 2.05955 143.675 9.81133C133.42 17.5631 130.258 30.7036 136.612 39.1615C142.966 47.6193 156.429 48.1917 166.683 40.4399Z" fill="white"/>
</g>
</mask>
<g mask="url(#mask2_17_632)">
<g id="Group_2">
<path id="Vector_11" d="M125.216 24.1899L162.321 -3.85881L185.352 26.7998L148.246 54.8485L125.216 24.1899Z" fill="white"/>
<g id="Clip path group_4">
<mask id="mask3_17_632" style="mask-type:luminance" maskUnits="userSpaceOnUse" x="125" y="-4" width="61" height="59">
<g id="SVGID_8_">
<path id="Vector_12" d="M125.216 24.1904L162.321 -3.85832L185.352 26.8003L148.246 54.849L125.216 24.1904Z" fill="white"/>
</g>
</mask>
<g mask="url(#mask3_17_632)">
<g id="Group_3">
<path id="Vector_13" d="M166.683 40.4404C176.938 32.6887 180.1 19.5482 173.746 11.0903C167.392 2.63243 153.929 2.06004 143.675 9.81182C133.42 17.5636 130.258 30.7041 136.612 39.162C142.966 47.6198 156.429 48.1922 166.683 40.4404Z" fill="white" stroke="#27272D" stroke-width="4" stroke-miterlimit="10"/>
</g>
</g>
</g>
<g id="Clip path group_5">
<mask id="mask4_17_632" style="mask-type:luminance" maskUnits="userSpaceOnUse" x="130" y="-3" width="51" height="57">
<g id="SVGID_8__2">
<path id="Vector_14" d="M130.504 42.6162L143.326 -2.19921L180.096 8.36817L167.274 53.1836L130.504 42.6162Z" fill="white"/>
</g>
</mask>
<g mask="url(#mask4_17_632)">
<path id="Vector_15" d="M125.216 24.2026L162.333 -3.85878L185.352 26.7871L148.234 54.8485L125.216 24.2026Z" stroke="#27272D" stroke-width="4" stroke-miterlimit="10"/>
</g>
</g>
<path id="Vector_16" d="M166.683 40.4399C176.938 32.6882 180.1 19.5477 173.746 11.0898C167.392 2.63195 153.929 2.05955 143.675 9.81133C133.42 17.5631 130.258 30.7036 136.612 39.1615C142.966 47.6193 156.429 48.1917 166.683 40.4399Z" stroke="#27272D" stroke-width="4" stroke-miterlimit="10"/>
<path id="Vector_17" d="M125.216 24.1899L162.321 -3.85881L185.352 26.7998L148.246 54.8485L125.216 24.1899Z" fill="white"/>
<g id="Clip path group_6">
<mask id="mask5_17_632" style="mask-type:luminance" maskUnits="userSpaceOnUse" x="125" y="-4" width="61" height="59">
<g id="SVGID_10_">
<path id="Vector_18" d="M125.216 24.1904L162.321 -3.85832L185.352 26.8003L148.246 54.849L125.216 24.1904Z" fill="white"/>
</g>
</mask>
<g mask="url(#mask5_17_632)">
<g id="Group_4">
<path id="Vector_19" d="M166.683 40.4404C176.938 32.6887 180.1 19.5482 173.746 11.0903C167.392 2.63243 153.929 2.06004 143.675 9.81182C133.42 17.5636 130.258 30.7041 136.612 39.162C142.966 47.6198 156.429 48.1922 166.683 40.4404Z" fill="white" stroke="#27272D" stroke-width="4" stroke-miterlimit="10"/>
</g>
</g>
</g>
<g id="Clip path group_7">
<mask id="mask6_17_632" style="mask-type:luminance" maskUnits="userSpaceOnUse" x="130" y="-3" width="51" height="57">
<g id="SVGID_10__2">
<path id="Vector_20" d="M130.504 42.6162L143.326 -2.19921L180.096 8.36817L167.274 53.1836L130.504 42.6162Z" fill="white"/>
</g>
</mask>
<g mask="url(#mask6_17_632)">
<path id="Vector_21" d="M125.216 24.2026L162.333 -3.85878L185.352 26.7871L148.234 54.8485L125.216 24.2026Z" stroke="#27272D" stroke-width="4" stroke-miterlimit="10"/>
</g>
</g>
<path id="Vector_22" d="M110.46 20.9307L163.45 -19.1272L200.118 29.6835L147.128 69.7413L110.46 20.9307Z" stroke="#27272D" stroke-width="4" stroke-miterlimit="10"/>
</g>
</g>
</g>
<path id="Vector_23" d="M166.683 40.4399C176.938 32.6882 180.1 19.5477 173.746 11.0898C167.392 2.63195 153.929 2.05955 143.675 9.81133C133.42 17.5631 130.258 30.7036 136.612 39.1615C142.966 47.6193 156.429 48.1917 166.683 40.4399Z" stroke="#27272D" stroke-width="4" stroke-miterlimit="10"/>
<path id="Vector_24" d="M144.808 22.6925L148.498 20.1012L153.037 26.5795C153.812 27.616 154.402 28.7266 154.845 29.9482C155.103 30.8737 155.03 31.8732 154.661 32.7617C154.181 33.8722 153.406 34.7977 152.373 35.4641C151.155 36.3155 150.122 36.7967 149.236 36.9448C148.387 37.0929 147.501 36.9448 146.69 36.5746C145.804 36.1304 145.029 35.5011 144.438 34.6867L147.612 31.7251C147.87 32.1323 148.203 32.5025 148.572 32.7987C148.83 32.9838 149.125 33.0948 149.457 33.0948C149.716 33.0948 149.974 32.9838 150.158 32.8357C150.527 32.6136 150.786 32.1694 150.749 31.7251C150.638 31.0958 150.38 30.4665 149.974 29.9852L144.808 22.6925ZM155.878 26.8016L159.237 24.1362C159.606 24.5805 160.085 24.9136 160.602 25.0987C161.34 25.3209 162.115 25.1728 162.742 24.6915C163.185 24.3954 163.554 23.9882 163.702 23.4699C163.923 22.8036 163.554 22.0632 162.89 21.8411C162.779 21.804 162.669 21.767 162.558 21.767C162.115 21.73 161.34 21.9151 160.196 22.3964C158.314 23.1737 156.838 23.4699 155.731 23.3588C154.661 23.2478 153.664 22.6925 153.074 21.767C152.631 21.1377 152.41 20.3973 152.373 19.6569C152.373 18.8055 152.594 17.9541 153.074 17.2507C153.775 16.2512 154.624 15.3998 155.657 14.7334C157.207 13.6599 158.572 13.1416 159.753 13.1416C160.934 13.1416 162.041 13.6969 163.075 14.8445L159.753 17.4728C159.089 16.6214 157.834 16.4363 156.986 17.1026L156.875 17.2137C156.506 17.4358 156.247 17.769 156.1 18.1762C155.989 18.4723 156.063 18.8055 156.247 19.0646C156.395 19.2497 156.616 19.3978 156.875 19.3978C157.17 19.4348 157.687 19.2868 158.425 18.9536C160.27 18.1762 161.672 17.732 162.632 17.5839C163.444 17.4358 164.292 17.5098 165.067 17.843C165.768 18.1392 166.359 18.6574 166.765 19.2868C167.281 20.0271 167.577 20.9156 167.614 21.8411C167.65 22.8036 167.392 23.729 166.876 24.5435C166.211 25.543 165.363 26.3944 164.366 27.0607C162.336 28.4675 160.676 29.0598 159.347 28.8377C157.908 28.6155 156.727 27.8752 155.878 26.8016Z" fill="#27272D"/>
</g>
</g>
</g>
</g>
</g>
</g>
</g>
</g>
<defs>
<clipPath id="clip0_17_632">
<rect width="204" height="76" fill="white"/>
</clipPath>
</defs>
</svg>
